<svg width="38" height="38" viewBox="0 0 38 38" fill="none" xmlns="http://www.w3.org/2000/svg">
<path d="M14 10C11.011 11.7965 9 15.1542 9 19C9 22.8458 11.011 26.2035 14 28" stroke="#7DB9F3" stroke-width="2" stroke-linecap="round"/>
<path d="M24 28C26.989 26.2035 29 22.8458 29 19C29 15.1542 26.989 11.7965 24 10" stroke="#7DB9F3" stroke-width="2" stroke-linecap="round"/>
<path d="M19 5C11.268 5 5 11.268 5 19C5 22.427 6.23136 25.5665 8.27577 28" stroke="#606060" stroke-width="2" stroke-linecap="round"/>
<path d="M19 33C26.732 33 33 26.732 33 19C33 15.573 31.7686 12.4335 29.7242 10" stroke="#606060" stroke-width="2" stroke-linecap="round"/>
<path d="M26 2.41182C23.8482 1.50268 21.4828 1 19 1C9.05887 1 1 9.05887 1 19C1 22.2786 1.87655 25.3524 3.40808 28" stroke="#7DB9F3" stroke-width="2" stroke-linecap="round"/>
<path d="M12 35.5882C14.1518 36.4973 16.5172 37 19 37C28.9411 37 37 28.9411 37 19C37 15.7214 36.1235 12.6476 34.5919 10" stroke="#7DB9F3" stroke-width="2" stroke-linecap="round"/>
</svg>
