<svg width="29" height="25" viewBox="0 0 29 25" fill="none" xmlns="http://www.w3.org/2000/svg">
<path fill-rule="evenodd" clip-rule="evenodd" d="M9.78909 4.66032C9.78909 2.15607 11.9982 0.125977 14.7233 0.125977C17.4484 0.125977 19.6575 2.15607 19.6575 4.66032V6.58964H22.2111C24.0274 6.58964 25.6158 7.81342 26.0789 9.56971L28.5936 19.106C29.2626 21.6429 27.3494 24.126 24.7259 24.126H4.7204C2.09687 24.126 0.183668 21.6429 0.852627 19.106L3.36736 9.56971C3.8305 7.81342 5.41882 6.58964 7.23515 6.58964H9.78909V4.66032ZM17.3334 4.66032V6.58964H12.1133V4.66032C12.1133 3.33564 13.2818 2.26178 14.7233 2.26178C16.1648 2.26178 17.3334 3.33564 17.3334 4.66032ZM22.2111 8.58964H7.23515C6.32698 8.58964 5.53282 9.20153 5.30125 10.0797L2.78652 19.616C2.45204 20.8844 3.40864 22.126 4.7204 22.126H24.7259C26.0376 22.126 26.9942 20.8844 26.6597 19.616L24.145 10.0797C23.9134 9.20153 23.1193 8.58964 22.2111 8.58964ZM15.156 13.5445C15.54 13.5445 15.892 13.6378 16.212 13.8245C16.5373 14.0058 16.7933 14.2698 16.98 14.6165C17.172 14.9578 17.268 15.3551 17.268 15.8085C17.268 16.2618 17.172 16.6618 16.98 17.0085C16.7933 17.3551 16.5373 17.6218 16.212 17.8085C15.892 17.9898 15.54 18.0805 15.156 18.0805C14.6173 18.0805 14.2173 17.9338 13.956 17.6405V18.0005H12.236V12.0645H14.044V13.9205C14.3 13.6698 14.6707 13.5445 15.156 13.5445ZM14.724 16.6725C14.932 16.6725 15.1027 16.5978 15.236 16.4485C15.3693 16.2938 15.436 16.0805 15.436 15.8085C15.436 15.5365 15.3693 15.3258 15.236 15.1765C15.1027 15.0271 14.932 14.9525 14.724 14.9525C14.516 14.9525 14.3453 15.0271 14.212 15.1765C14.0787 15.3258 14.012 15.5365 14.012 15.8085C14.012 16.0805 14.0787 16.2938 14.212 16.4485C14.3453 16.5978 14.516 16.6725 14.724 16.6725ZM9.49512 12.4005H11.3831V18.0005H9.49512V12.4005ZM18.4456 17.9605C18.8082 18.0405 19.1762 18.0805 19.5496 18.0805C20.0349 18.0805 20.4482 18.0138 20.7896 17.8805C21.1309 17.7471 21.3869 17.5685 21.5576 17.3445C21.7282 17.1205 21.8136 16.8725 21.8136 16.6005C21.8136 16.2431 21.7176 15.9685 21.5256 15.7765C21.3389 15.5845 21.1202 15.4538 20.8696 15.3845C20.6242 15.3151 20.3229 15.2591 19.9656 15.2165C19.7362 15.1898 19.5682 15.1631 19.4616 15.1365C19.3549 15.1045 19.3016 15.0538 19.3016 14.9845C19.3016 14.8458 19.4989 14.7765 19.8936 14.7765C20.3522 14.7765 20.7736 14.8831 21.1576 15.0965L21.6536 13.9045C21.4296 13.7871 21.1576 13.6991 20.8376 13.6405C20.5229 13.5765 20.2002 13.5445 19.8696 13.5445C19.3949 13.5445 18.9869 13.6111 18.6456 13.7445C18.3096 13.8778 18.0562 14.0565 17.8856 14.2805C17.7149 14.5045 17.6296 14.7578 17.6296 15.0405C17.6296 15.3978 17.7229 15.6725 17.9096 15.8645C18.1016 16.0565 18.3229 16.1871 18.5736 16.2565C18.8242 16.3205 19.1282 16.3738 19.4856 16.4165C19.7202 16.4431 19.8882 16.4698 19.9896 16.4965C20.0962 16.5231 20.1496 16.5711 20.1496 16.6405C20.1496 16.7098 20.1069 16.7631 20.0216 16.8005C19.9416 16.8325 19.7976 16.8485 19.5896 16.8485C19.3282 16.8485 19.0589 16.8138 18.7816 16.7445C18.5042 16.6751 18.2642 16.5791 18.0616 16.4565L17.5656 17.6485C17.7896 17.7765 18.0829 17.8805 18.4456 17.9605Z" fill="#7ABDFF"/>
</svg>
