<svg width="229" height="84" viewBox="0 0 229 84" fill="none" xmlns="http://www.w3.org/2000/svg">
<path d="M64.0793 22C57.437 25.9922 52.9681 33.4539 52.9681 42C52.9681 50.5461 57.437 58.0078 64.0793 62" stroke="white" stroke-width="4" stroke-linecap="round"/>
<path d="M86.301 62C92.9432 58.0078 97.4121 50.5461 97.4121 42C97.4121 33.4539 92.9432 25.9922 86.301 22" stroke="white" stroke-width="4" stroke-linecap="round"/>
<path d="M75.1897 10.8887C58.0075 10.8887 44.0786 24.8176 44.0786 41.9998C44.0786 49.6154 46.8149 56.5919 51.358 61.9998" stroke="white" stroke-width="4" stroke-linecap="round"/>
<path d="M75.19 73.1113C92.3722 73.1113 106.301 59.1824 106.301 42.0002C106.301 34.3846 103.565 27.4081 99.0216 22.0002" stroke="white" stroke-width="4" stroke-linecap="round"/>
<path d="M90.7459 5.13737C85.9641 3.11707 80.7077 2 75.1903 2C53.0989 2 35.1903 19.9086 35.1903 42C35.1903 49.2857 37.1382 56.1165 40.5416 62" stroke="white" stroke-width="4" stroke-linecap="round"/>
<path d="M59.6346 78.8626C64.4163 80.8829 69.6728 82 75.1901 82C97.2815 82 115.19 64.0914 115.19 42C115.19 34.7143 113.242 27.8835 109.839 22" stroke="white" stroke-width="4" stroke-linecap="round"/>
<path d="M13.1257 55.3662C10.7181 55.3662 8.38665 55.0005 6.13141 54.2691C3.90665 53.5071 2.15427 52.5319 0.874268 51.3433L2.5657 47.7776C3.78474 48.8748 5.33903 49.7738 7.22855 50.4748C9.14855 51.1452 11.1143 51.4805 13.1257 51.4805C15.7771 51.4805 17.7581 51.0386 19.0686 50.1548C20.379 49.2405 21.0343 48.0367 21.0343 46.5433C21.0343 45.4462 20.6686 44.5624 19.9371 43.8919C19.2362 43.191 18.3524 42.6576 17.2857 42.2919C16.2495 41.9262 14.7714 41.5148 12.8514 41.0576C10.4438 40.4786 8.49332 39.8995 6.99998 39.3205C5.53713 38.7414 4.27236 37.8576 3.2057 36.6691C2.16951 35.45 1.65141 33.8195 1.65141 31.7776C1.65141 30.071 2.09332 28.5319 2.97713 27.1605C3.89141 25.789 5.26284 24.6919 7.09141 23.869C8.91998 23.0462 11.1905 22.6348 13.9028 22.6348C15.7924 22.6348 17.6514 22.8786 19.48 23.3662C21.3086 23.8538 22.8781 24.5548 24.1886 25.4691L22.68 29.1262C21.339 28.2729 19.9066 27.6329 18.3828 27.2062C16.859 26.749 15.3657 26.5205 13.9028 26.5205C11.3124 26.5205 9.36189 26.9929 8.05141 27.9376C6.77141 28.8824 6.13141 30.1014 6.13141 31.5948C6.13141 32.6919 6.49713 33.591 7.22855 34.2919C7.95998 34.9624 8.85903 35.4957 9.9257 35.8919C11.0228 36.2576 12.5009 36.6538 14.36 37.0805C16.7676 37.6595 18.7028 38.2386 20.1657 38.8176C21.6286 39.3967 22.8781 40.2805 23.9143 41.4691C24.9809 42.6576 25.5143 44.2576 25.5143 46.2691C25.5143 47.9452 25.0571 49.4843 24.1428 50.8862C23.2286 52.2576 21.8419 53.3548 19.9828 54.1776C18.1238 54.97 15.8381 55.3662 13.1257 55.3662Z" fill="white"/>
<path d="M153.374 23.0005V55.0005H149.625L130.425 31.1376V55.0005H125.854V23.0005H129.602L148.802 46.8633V23.0005H153.374Z" fill="white"/>
<path d="M186.197 47.0005H169.192L165.672 55.0005H160.963L175.455 23.0005H179.98L194.518 55.0005H189.717L186.197 47.0005ZM184.598 43.3433L177.695 27.6633L170.792 43.3433H184.598Z" fill="white"/>
<path d="M223.542 55.0005L216.64 45.1719C215.786 45.2329 215.116 45.2633 214.628 45.2633H206.72V55.0005H202.148V23.0005H214.628C218.773 23.0005 222.034 23.991 224.411 25.9719C226.788 27.9529 227.977 30.6805 227.977 34.1548C227.977 36.6233 227.367 38.7262 226.148 40.4633C224.929 42.2005 223.192 43.4652 220.937 44.2576L228.525 55.0005H223.542ZM214.491 41.3776C217.386 41.3776 219.596 40.7529 221.12 39.5033C222.643 38.2538 223.405 36.471 223.405 34.1548C223.405 31.8386 222.643 30.071 221.12 28.8519C219.596 27.6024 217.386 26.9776 214.491 26.9776H206.72V41.3776H214.491Z" fill="white"/>
</svg>
