<svg width="26" height="27" viewBox="0 0 26 27" fill="none" xmlns="http://www.w3.org/2000/svg">
<path d="M20 15C16.6727 15 14 17.6727 14 21C14 24.3273 16.6727 27 20 27C23.3273 27 26 24.3273 26 21C26 17.6727 23.3273 15 20 15ZM23.4636 19.1182L19.1 23.6455C19.0455 23.7 18.9909 23.7273 18.9091 23.7273C18.8273 23.7273 18.7455 23.7 18.7182 23.6455L16.5909 21.3545L16.5364 21.3C16.4818 21.2455 16.4545 21.1636 16.4545 21.1091C16.4545 21.0545 16.4818 20.9727 16.5364 20.9182L16.9182 20.5364C17.0273 20.4273 17.1909 20.4273 17.3 20.5364L17.3273 20.5636L18.8273 22.1727C18.8818 22.2273 18.9636 22.2273 19.0182 22.1727L22.6727 18.3818H22.7C22.8091 18.2727 22.9727 18.2727 23.0818 18.3818L23.4636 18.7636C23.5727 18.8455 23.5727 19.0091 23.4636 19.1182V19.1182Z" fill="#38C3A4"/>
<path fill-rule="evenodd" clip-rule="evenodd" d="M7 0C7.55228 0 8 0.447715 8 1V2H15V1C15 0.447715 15.4477 0 16 0C16.5523 0 17 0.447715 17 1V2H19.55C21.4554 2 23 3.54462 23 5.45V10V13.865C22.2928 13.4912 21.5185 13.2271 20.7 13.0955V11H2.3V21.55C2.3 22.1851 2.81487 22.7 3.45 22.7H12.3278C12.5848 23.5387 12.9848 24.3149 13.4995 25H3.45C1.54462 25 0 23.4554 0 21.55V10V5.45C0 3.54462 1.54462 2 3.45 2H6V1C6 0.447715 6.44772 0 7 0ZM6 4.3H3.45C2.81487 4.3 2.3 4.81487 2.3 5.45V9H20.7V5.45C20.7 4.81487 20.1851 4.3 19.55 4.3H17V5C17 5.55228 16.5523 6 16 6C15.4477 6 15 5.55228 15 5V4.3H8V5C8 5.55228 7.55228 6 7 6C6.44772 6 6 5.55228 6 5V4.3Z" fill="#7ABDFF"/>
</svg>
